ply
format ascii 1.0
comment VCGLIB generated
element vertex 288
property float x
property float y
property float z
property float nx
property float ny
property float nz
element face 576
property list uchar int vertex_indices
end_header
4 0 0 1 1.261514e-07 3.881583e-08 
3.866025 0 0.5 0.8688982 -0.008242472 0.4949223 
3.5 0 0.8660254 0.5095578 -0.01278276 0.8603415 
3 0 1 0.01488329 -0.0117566 0.9998201 
2.5 0 0.8660254 -0.4866534 -0.006595958 0.8735703 
2.133975 0 0.5000001 -0.86084 -0.001715542 0.5088729 
2 0 -8.742278e-08 -1 -7.508825e-08 -3.285111e-07 
2.133975 0 -0.5000002 -0.86084 0.001715457 -0.5088728 
2.5 0 -0.8660254 -0.4866533 0.006595837 -0.8735703 
3 0 -1 0.01488342 0.0117566 -0.9998201 
3.5 0 -0.8660254 0.5095581 0.0127829 -0.8603413 
3.866025 0 -0.4999998 0.8688982 0.008242664 -0.4949222 
3.863703 1.035276 0 0.9659258 0.2588191 1.940791e-08 
3.734294 1.000601 0.5 0.8414245 0.2169257 0.4949223 
3.38074 0.9058666 0.8660254 0.4955036 0.1195361 0.8603414 
2.897778 0.7764571 1 0.01741903 -0.007503927 0.9998201 
2.414814 0.6470476 0.8660254 -0.4683638 -0.1323263 0.8735703 
2.061261 0.5523133 0.5000001 -0.8310636 -0.2244589 0.5088727 
1.931852 0.5176381 -8.742278e-08 -0.9659259 -0.2588191 -2.487297e-07 
2.061261 0.5523133 -0.5000002 -0.8319516 -0.2211448 -0.5088728 
2.414814 0.6470476 -0.8660254 -0.4717781 -0.119584 -0.8735703 
2.897778 0.7764571 -1 0.01133341 0.01520811 -0.9998201 
3.38074 0.9058666 -0.8660254 0.488887 0.1442306 -0.8603413 
3.734294 1.000601 -0.4999998 0.8371578 0.2328491 -0.4949223 
3.464102 2 0 0.8660253 0.5000001 1.940791e-08 
3.348076 1.933013 0.5 0.7566091 0.4273109 0.4949223 
3.031089 1.75 0.8660254 0.4476815 0.2437087 0.8603414 
2.598076 1.5 1 0.01876764 -0.002739847 0.9998201 
2.165063 1.25 0.8660254 -0.4181562 -0.2490388 0.8735703 
1.848076 1.066987 0.5000001 -0.7446516 -0.4319057 0.5088727 
1.732051 1 -8.742278e-08 -0.8660254 -0.5000001 -2.111856e-07 
1.848076 1.066987 -0.5000002 -0.746367 -0.4289344 -0.5088728 
2.165063 1.25 -0.8660254 -0.4247521 -0.2376145 -0.8735703 
2.598076 1.5 -1 0.007011082 0.0176232 -0.9998201 
3.031089 1.75 -0.8660254 0.4348988 0.2658493 -0.8603413 
3.348076 1.933013 -0.4999998 0.7483666 0.4415874 -0.4949223 
2.828427 2.828427 0 0.7071068 0.7071068 1.94079e-08 
2.733693 2.733693 0.5 0.6202322 0.6085754 0.4949222 
2.474874 2.474874 0.8660254 0.3693507 0.3512731 0.8603414 
2.12132 2.12132 1 0.01883728 0.00221091 0.9998201 
1.767767 1.767767 0.8660254 -0.3394518 -0.3487798 0.8735703 
1.508948 1.508948 0.5000001 -0.6074928 -0.6099188 0.5088728 
1.414214 1.414214 -8.742278e-08 -0.7071069 -0.7071067 -2.064926e-07 
1.508948 1.508948 -0.5000002 -0.6099188 -0.6074927 -0.5088729 
1.767767 1.767767 -0.8660254 -0.3487799 -0.3394518 -0.8735703 
2.12132 2.12132 -1 0.002210974 0.01883733 -0.9998201 
2.474874 2.474874 -0.8660254 0.3512732 0.3693508 -0.8603413 
2.733693 2.733693 -0.4999998 0.6085755 0.6202322 -0.4949222 
2 3.464102 0 0.5000001 0.8660253 -3.881582e-08 
1.933013 3.348076 0.5 0.4415874 0.7483666 0.4949223 
1.75 3.031089 0.8660254 0.2658493 0.4348987 0.8603414 
1.5 2.598076 1 0.0176232 0.007011059 0.9998201 
1.25 2.165064 0.8660254 -0.2376144 -0.424752 0.8735703 
1.066987 1.848076 0.5000001 -0.4289343 -0.746367 0.5088729 
0.9999999 1.732051 -8.742278e-08 -0.5 -0.8660253 -2.628088e-07 
1.066987 1.848076 -0.5000002 -0.4319057 -0.7446516 -0.5088727 
1.25 2.165064 -0.8660254 -0.2490389 -0.4181561 -0.8735703 
1.5 2.598076 -1 -0.002739848 0.01876768 -0.9998201 
1.75 3.031089 -0.8660254 0.2437088 0.4476816 -0.8603413 
1.933013 3.348076 -0.4999998 0.4273109 0.7566091 -0.4949223 
1.035276 3.863703 0 0.258819 0.9659259 9.703954e-09 
1.000601 3.734294 0.5 0.232849 0.8371578 0.4949223 
0.9058667 3.38074 0.8660254 0.1442305 0.4888868 0.8603414 
0.7764572 2.897778 1 0.01520805 0.01133334 0.9998201 
0.6470477 2.414814 0.8660254 -0.119584 -0.4717781 0.8735703 
0.5523133 2.061261 0.5000001 -0.2211447 -0.8319516 0.5088728 
0.5176381 1.931852 -8.742278e-08 -0.258819 -0.9659259 -2.909669e-07 
0.5523134 2.061261 -0.5000002 -0.2244588 -0.8310636 -0.5088728 
0.6470477 2.414814 -0.8660254 -0.1323263 -0.4683638 -0.8735703 
0.7764572 2.897778 -1 -0.007503937 0.01741912 -0.9998201 
0.9058667 3.38074 -0.8660254 0.1195361 0.4955038 -0.8603413 
1.000601 3.734294 -0.4999998 0.2169257 0.8414245 -0.4949223 
-1.748456e-07 4 0 -4.851976e-09 1 0 
-1.689893e-07 3.866025 0.5 0.008242574 0.8688982 0.4949223 
-1.529899e-07 3.5 0.8660254 0.01278281 0.5095579 0.8603414 
-1.311342e-07 3 0.9999999 0.01175657 0.01488334 0.9998201 
-1.092785e-07 2.5 0.8660253 0.006595852 -0.4866533 0.8735703 
-9.327899e-08 2.133975 0.5 0.001715457 -0.86084 0.5088729 
-8.742278e-08 2 -8.742277e-08 -4.693012e-09 -1 -2.346506e-07 
-9.3279e-08 2.133975 -0.5000001 -0.001715508 -0.86084 -0.5088728 
-1.092785e-07 2.5 -0.8660254 -0.006595931 -0.4866533 -0.8735703 
-1.311342e-07 3 -0.9999999 -0.01175665 0.01488339 -0.9998201 
-1.529899e-07 3.5 -0.8660254 -0.01278287 0.5095581 -0.8603413 
-1.689893e-07 3.866025 -0.4999997 -0.008242566 0.8688981 -0.4949223 
-1.035277 3.863703 0 -0.2588191 0.9659259 -9.703953e-09 
-1.000601 3.734294 0.5 -0.2169257 0.8414245 0.4949223 
-0.9058671 3.38074 0.8660254 -0.1195361 0.4955036 0.8603414 
-0.7764575 2.897778 0.9999999 0.007503925 0.01741904 0.9998201 
-0.6470479 2.414814 0.8660253 0.1323263 -0.4683638 0.8735703 
-0.5523135 2.061261 0.5 0.2244589 -0.8310636 0.5088728 
-0.5176383 1.931852 -8.742277e-08 0.2588191 -0.9659258 -2.299577e-07 
-0.5523136 2.061261 -0.5000001 0.2211448 -0.8319516 -0.5088728 
-0.6470479 2.414814 -0.8660254 0.119584 -0.4717782 -0.8735703 
-0.7764575 2.897778 -0.9999999 -0.01520811 0.01133339 -0.9998201 
-0.9058671 3.38074 -0.8660254 -0.1442306 0.4888868 -0.8603413 
-1.000601 3.734294 -0.4999997 -0.2328491 0.8371578 -0.4949223 
-2 3.464102 0 -0.5000002 0.8660253 9.703957e-09 
-1.933013 3.348076 0.5 -0.4273109 0.7566091 0.4949223 
-1.75 3.031089 0.8660254 -0.2437087 0.4476815 0.8603414 
-1.5 2.598076 0.9999999 0.002739878 0.01876767 0.9998201 
-1.25 2.165063 0.8660253 0.2490389 -0.4181561 0.8735703 
-1.066987 1.848076 0.5 0.4319058 -0.7446515 0.5088727 
-1 1.732051 -8.742277e-08 0.5000002 -0.8660253 -2.205717e-07 
-1.066988 1.848076 -0.5000001 0.4289345 -0.7463669 -0.5088728 
-1.25 2.165063 -0.8660254 0.2376145 -0.4247521 -0.8735703 
-1.5 2.598076 -0.9999999 -0.01762317 0.007011103 -0.9998201 
-1.75 3.031089 -0.8660254 -0.2658494 0.4348988 -0.8603413 
-1.933013 3.348076 -0.4999997 -0.4415874 0.7483665 -0.4949223 
-2.828427 2.828427 0 -0.7071068 0.7071068 0 
-2.733693 2.733693 0.5 -0.6085755 0.6202322 0.4949222 
-2.474874 2.474874 0.8660254 -0.3512731 0.3693507 0.8603414 
-2.12132 2.12132 1 -0.002210895 0.0188373 0.9998201 
-1.767767 1.767767 0.8660254 0.3487799 -0.3394518 0.8735703 
-1.508948 1.508948 0.5000001 0.6099189 -0.6074927 0.5088727 
-1.414214 1.414214 -8.742278e-08 0.7071068 -0.7071068 -2.064926e-07 
-1.508948 1.508948 -0.5000002 0.6074927 -0.6099188 -0.5088728 
-1.767767 1.767767 -0.8660254 0.3394519 -0.3487798 -0.8735703 
-2.12132 2.12132 -1 -0.01883729 0.002210988 -0.9998201 
-2.474874 2.474874 -0.8660254 -0.3693508 0.3512732 -0.8603413 
-2.733693 2.733693 -0.4999998 -0.6202321 0.6085755 -0.4949223 
-3.464102 2 0 -0.8660254 0.5 9.703951e-09 
-3.348076 1.933013 0.5 -0.7483665 0.4415874 0.4949223 
-3.031089 1.75 0.8660254 -0.4348987 0.2658492 0.8603415 
-2.598076 1.5 1 -0.007010988 0.01762315 0.9998201 
-2.165063 1.25 0.8660254 0.4247521 -0.2376144 0.8735703 
-1.848076 1.066987 0.5000001 0.7463672 -0.4289342 0.5088727 
-1.732051 1 -8.742278e-08 0.8660254 -0.5 -2.815808e-07 
-1.848076 1.066988 -0.5000002 0.7446516 -0.4319057 -0.5088728 
-2.165063 1.25 -0.8660254 0.4181561 -0.2490388 -0.8735703 
-2.598076 1.5 -1 -0.01876773 -0.0027398 -0.9998201 
-3.031089 1.75 -0.8660254 -0.4476817 0.2437088 -0.8603413 
-3.348076 1.933013 -0.4999998 -0.7566092 0.4273108 -0.4949222 
-3.863703 1.035276 0 -0.9659259 0.258819 -6.307568e-08 
-3.734294 1.000601 0.5 -0.8371579 0.2328491 0.4949222 
-3.380741 0.9058663 0.8660254 -0.4888867 0.1442305 0.8603414 
-2.897778 0.7764568 1 -0.01133339 0.01520812 0.9998201 
-2.414815 0.6470473 0.8660254 0.4717781 -0.119584 0.8735704 
-2.061261 0.552313 0.5000001 0.8319516 -0.2211447 0.5088729 
-1.931852 0.5176378 -8.742278e-08 0.9659258 -0.258819 -2.158786e-07 
-2.061261 0.5523131 -0.5000002 0.8310636 -0.2244588 -0.5088729 
-2.414815 0.6470473 -0.8660254 0.4683639 -0.1323263 -0.8735703 
-2.897778 0.7764568 -1 -0.01741904 -0.007503936 -0.9998201 
-3.380741 0.9058663 -0.8660254 -0.4955037 0.119536 -0.8603413 
-3.734294 1.000601 -0.4999998 -0.8414245 0.2169257 -0.4949223 
-4 -3.496911e-07 0 -1 -1.261514e-07 0 
-3.866025 -3.379787e-07 0.5 -0.8688982 0.008242473 0.4949223 
-3.5 -3.059797e-07 0.8660254 -0.5095579 0.01278276 0.8603414 
-3 -2.622683e-07 1 -0.01488333 0.0117566 0.9998201 
-2.5 -2.185569e-07 0.8660254 0.4866533 0.006595954 0.8735703 
-2.133975 -1.86558e-07 0.5000001 0.86084 0.001715542 0.5088729 
-2 -1.748456e-07 -8.742278e-08 1 7.508823e-08 -2.909669e-07 
-2.133975 -1.86558e-07 -0.5000002 0.86084 -0.001715458 -0.5088728 
-2.5 -2.185569e-07 -0.8660254 0.4866533 -0.006595832 -0.8735703 
-3 -2.622683e-07 -1 -0.01488338 -0.0117566 -0.9998201 
-3.5 -3.059797e-07 -0.8660254 -0.5095581 -0.01278289 -0.8603414 
-3.866025 -3.379787e-07 -0.4999998 -0.8688982 -0.008242661 -0.4949222 
-3.863703 -1.035276 0 -0.9659258 -0.2588193 7.277963e-08 
-3.734294 -1.000601 0.5 -0.8414244 -0.2169259 0.4949223 
-3.38074 -0.9058667 0.8660254 -0.4955035 -0.1195362 0.8603414 
-2.897778 -0.7764572 1 -0.01741898 0.0075039 0.9998201 
-2.414814 -0.6470477 0.8660254 0.4683639 0.1323264 0.8735703 
-2.061261 -0.5523133 0.5000001 0.8310636 0.224459 0.5088727 
-1.931852 -0.5176381 -8.742278e-08 0.9659258 0.2588193 -2.956598e-07 
-2.061261 -0.5523134 -0.5000002 0.8319516 0.2211449 -0.5088728 
-2.414814 -0.6470477 -0.8660254 0.4717781 0.119584 -0.8735703 
-2.897778 -0.7764572 -1 -0.01133343 -0.01520817 -0.9998201 
-3.38074 -0.9058667 -0.8660254 -0.488887 -0.1442308 -0.8603412 
-3.734294 -1.000601 -0.4999998 -0.8371578 -0.2328493 -0.4949223 
-3.464101 -2.000001 0 -0.8660254 -0.5000001 -5.822371e-08 
-3.348076 -1.933013 0.5 -0.7566091 -0.4273109 0.4949223 
-3.031088 -1.750001 0.8660254 -0.4476815 -0.2437088 0.8603414 
-2.598076 -1.5 0.9999999 -0.01876768 0.002739787 0.9998201 
-2.165063 -1.25 0.8660253 0.4181561 0.2490388 0.8735703 
-1.848076 -1.066988 0.5 0.7446516 0.4319057 0.5088728 
-1.732051 -1 -8.742277e-08 0.8660254 0.5000002 -2.111856e-07 
-1.848076 -1.066988 -0.5000001 0.746367 0.4289345 -0.5088728 
-2.165063 -1.25 -0.8660254 0.4247521 0.2376145 -0.8735703 
-2.598076 -1.5 -0.9999999 -0.00701103 -0.01762322 -0.9998201 
-3.031088 -1.750001 -0.8660254 -0.4348988 -0.2658494 -0.8603414 
-3.348076 -1.933013 -0.4999997 -0.7483665 -0.4415874 -0.4949223 
-2.828427 -2.828428 0 -0.7071067 -0.7071069 2.911187e-08 
-2.733692 -2.733693 0.5 -0.620232 -0.6085755 0.4949223 
-2.474873 -2.474874 0.8660254 -0.3693506 -0.3512731 0.8603414 
-2.12132 -2.121321 0.9999999 -0.01883731 -0.002210895 0.9998201 
-1.767767 -1.767767 0.8660253 0.3394518 0.3487799 0.8735703 
-1.508948 -1.508948 0.5 0.6074926 0.609919 0.5088727 
-1.414213 -1.414214 -8.742277e-08 0.7071066 0.7071069 -2.440368e-07 
-1.508948 -1.508948 -0.5000001 0.6099187 0.6074929 -0.5088728 
-1.767767 -1.767767 -0.8660254 0.3487798 0.3394519 -0.8735703 
-2.12132 -2.121321 -0.9999999 -0.002211001 -0.01883729 -0.9998201 
-2.474873 -2.474874 -0.8660254 -0.3512731 -0.3693508 -0.8603413 
-2.733692 -2.733693 -0.4999997 -0.6085753 -0.6202322 -0.4949223 
-2 -3.464102 0 -0.5 -0.8660254 -9.703956e-09 
-1.933012 -3.348076 0.5 -0.4415873 -0.7483666 0.4949223 
-1.75 -3.031089 0.8660254 -0.2658492 -0.4348987 0.8603414 
-1.5 -2.598076 1 -0.01762321 -0.007011018 0.9998201 
-1.25 -2.165064 0.8660254 0.2376144 0.424752 0.8735703 
-1.066987 -1.848076 0.5000001 0.4289343 0.7463672 0.5088728 
-0.9999998 -1.732051 -8.742278e-08 0.5 0.8660254 -2.393438e-07 
-1.066987 -1.848076 -0.5000002 0.4319056 0.7446516 -0.5088729 
-1.25 -2.165064 -0.8660254 0.2490388 0.4181562 -0.8735703 
-1.5 -2.598076 -1 0.00273979 -0.01876767 -0.9998201 
-1.75 -3.031089 -0.8660254 -0.2437088 -0.4476817 -0.8603413 
-1.933012 -3.348076 -0.4999998 -0.4273108 -0.7566091 -0.4949223 
-1.035276 -3.863703 0 -0.258819 -0.9659258 -4.36678e-08 
-1.000601 -3.734294 0.5 -0.2328491 -0.8371579 0.4949223 
-0.9058664 -3.380741 0.8660254 -0.1442305 -0.4888867 0.8603414 
-0.776457 -2.897778 1 -0.01520812 -0.01133336 0.9998201 
-0.6470475 -2.414815 0.8660254 0.119584 0.4717781 0.8735703 
-0.5523131 -2.061261 0.5000001 0.2211447 0.8319516 0.5088729 
-0.517638 -1.931852 -8.742278e-08 0.258819 0.9659259 -2.534228e-07 
-0.5523132 -2.061261 -0.5000002 0.2244588 0.8310636 -0.5088728 
-0.6470475 -2.414815 -0.8660254 0.1323263 0.4683639 -0.8735703 
-0.776457 -2.897778 -1 0.007503926 -0.01741907 -0.9998201 
-0.9058664 -3.380741 -0.8660254 -0.1195361 -0.4955038 -0.8603414 
-1.000601 -3.734294 -0.4999998 -0.2169257 -0.8414245 -0.4949223 
4.769952e-08 -4 0 1.261514e-07 -1 0 
4.610189e-08 -3.866025 0.5 -0.008242472 -0.8688982 0.4949223 
4.173708e-08 -3.5 0.8660254 -0.01278276 -0.5095579 0.8603414 
3.577464e-08 -3 1 -0.0117566 -0.01488333 0.9998201 
2.98122e-08 -2.5 0.8660254 -0.006595954 0.4866533 0.8735703 
2.544739e-08 -2.133975 0.5000001 -0.001715541 0.86084 0.5088729 
2.384976e-08 -2 -8.742278e-08 -7.508823e-08 1 -3.003529e-07 
2.54474e-08 -2.133975 -0.5000002 0.001715458 0.86084 -0.5088728 
2.98122e-08 -2.5 -0.8660254 0.006595832 0.4866533 -0.8735703 
3.577464e-08 -3 -1 0.0117566 -0.01488339 -0.9998201 
4.173708e-08 -3.5 -0.8660254 0.01278289 -0.5095581 -0.8603413 
4.610189e-08 -3.866025 -0.4999998 0.008242663 -0.8688982 -0.4949223 
1.035276 -3.863703 0 0.258819 -0.9659259 4.851977e-09 
1.000601 -3.734294 0.5 0.2169257 -0.8414245 0.4949223 
0.9058666 -3.38074 0.8660254 0.1195361 -0.4955037 0.8603414 
0.7764571 -2.897778 1 -0.007503914 -0.01741903 0.9998201 
0.6470475 -2.414814 0.8660254 -0.1323263 0.4683638 0.8735703 
0.5523132 -2.061261 0.5000001 -0.2244588 0.8310636 0.5088728 
0.517638 -1.931852 -8.742278e-08 -0.258819 0.9659259 -2.346507e-07 
0.5523133 -2.061261 -0.5000002 -0.2211447 0.8319516 -0.5088728 
0.6470475 -2.414814 -0.8660254 -0.119584 0.4717781 -0.8735703 
0.7764571 -2.897778 -1 0.0152081 -0.0113334 -0.9998201 
0.9058666 -3.38074 -0.8660254 0.1442306 -0.4888869 -0.8603413 
1.000601 -3.734294 -0.4999998 0.232849 -0.8371578 -0.4949223 
2 -3.464102 0 0.5000002 -0.8660253 4.851974e-08 
1.933012 -3.348076 0.5 0.4273109 -0.7566091 0.4949224 
1.75 -3.031089 0.8660254 0.2437087 -0.4476814 0.8603414 
1.5 -2.598076 1 -0.0027399 -0.01876757 0.9998201 
1.25 -2.165064 0.8660254 -0.2490389 0.4181562 0.8735703 
1.066987 -1.848076 0.5000001 -0.4319059 0.7446516 0.5088727 
0.9999998 -1.732051 -8.742278e-08 -0.5000002 0.8660253 -3.378967e-07 
1.066987 -1.848076 -0.5000002 -0.4289344 0.7463669 -0.5088729 
1.25 -2.165064 -0.8660254 -0.2376145 0.424752 -0.8735703 
1.5 -2.598076 -1 0.01762327 -0.007011151 -0.9998201 
1.75 -3.031089 -0.8660254 0.2658494 -0.4348989 -0.8603413 
1.933012 -3.348076 -0.4999998 0.4415874 -0.7483666 -0.4949222 
2.828428 -2.828426 0 0.7071069 -0.7071067 -5.822368e-08 
2.733694 -2.733692 0.5 0.6085755 -0.6202322 0.4949222 
2.474874 -2.474873 0.8660254 0.3512731 -0.3693508 0.8603414 
2.121321 -2.12132 1 0.002210986 -0.01883735 0.9998201 
1.767768 -1.767766 0.8660254 -0.3487798 0.3394517 0.8735703 
1.508948 -1.508947 0.5000001 -0.6099188 0.6074927 0.5088729 
1.414214 -1.414213 -8.742278e-08 -0.7071068 0.7071068 -1.877204e-07 
1.508949 -1.508947 -0.5000002 -0.6074928 0.6099188 -0.5088727 
1.767768 -1.767766 -0.8660254 -0.3394519 0.3487799 -0.8735703 
2.121321 -2.12132 -1 0.01883726 -0.002210909 -0.9998201 
2.474874 -2.474873 -0.8660254 0.3693508 -0.3512731 -0.8603413 
2.733694 -2.733692 -0.4999998 0.6202321 -0.6085753 -0.4949223 
3.464102 -1.999999 0 0.8660256 -0.4999998 -9.703957e-09 
3.348077 -1.933012 0.5 0.7483668 -0.4415872 0.4949222 
3.03109 -1.749999 0.8660254 0.4348988 -0.2658491 0.8603414 
2.598077 -1.499999 1 0.007011036 -0.01762319 0.9998201 
2.165064 -1.249999 0.8660254 -0.4247521 0.2376143 0.8735704 
1.848076 -1.066987 0.5000001 -0.7463672 0.4289341 0.5088728 
1.732051 -0.9999995 -8.742278e-08 -0.8660256 0.4999997 -2.393437e-07 
1.848077 -1.066987 -0.5000002 -0.7446516 0.4319055 -0.5088728 
2.165064 -1.249999 -0.8660254 -0.4181562 0.2490387 -0.8735703 
2.598077 -1.499999 -1 0.0187677 0.002739839 -0.9998201 
3.03109 -1.749999 -0.8660254 0.4476818 -0.2437087 -0.8603413 
3.348077 -1.933012 -0.4999998 0.7566093 -0.4273106 -0.4949223 
3.863703 -1.035275 0 0.9659258 -0.2588188 -4.851979e-08 
3.734294 -1.0006 0.5 0.8371579 -0.2328489 0.4949222 
3.380741 -0.9058659 0.8660254 0.4888867 -0.1442304 0.8603414 
2.897778 -0.7764565 1 0.01133339 -0.01520809 0.9998201 
2.414815 -0.6470471 0.8660254 -0.4717781 0.1195839 0.8735703 
2.061261 -0.5523128 0.5000001 -0.8319516 0.2211446 0.5088729 
1.931852 -0.5176377 -8.742278e-08 -0.9659259 0.2588189 -2.440368e-07 
2.061261 -0.5523129 -0.5000002 -0.8310636 0.2244587 -0.5088728 
2.414815 -0.6470471 -0.8660254 -0.4683639 0.1323262 -0.8735703 
2.897778 -0.7764565 -1 0.01741905 0.007503913 -0.9998201 
3.380741 -0.9058659 -0.8660254 0.4955038 -0.119536 -0.8603413 
3.734294 -1.0006 -0.4999998 0.8414246 -0.2169256 -0.4949222 
3 13 1 0 
3 0 12 13 
3 14 2 1 
3 1 13 14 
3 15 3 2 
3 2 14 15 
3 16 4 3 
3 3 15 16 
3 17 5 4 
3 4 16 17 
3 18 6 5 
3 5 17 18 
3 19 7 6 
3 6 18 19 
3 20 8 7 
3 7 19 20 
3 21 9 8 
3 8 20 21 
3 22 10 9 
3 9 21 22 
3 23 11 10 
3 10 22 23 
3 12 0 11 
3 11 23 12 
3 25 13 12 
3 12 24 25 
3 26 14 13 
3 13 25 26 
3 27 15 14 
3 14 26 27 
3 28 16 15 
3 15 27 28 
3 29 17 16 
3 16 28 29 
3 30 18 17 
3 17 29 30 
3 31 19 18 
3 18 30 31 
3 32 20 19 
3 19 31 32 
3 33 21 20 
3 20 32 33 
3 34 22 21 
3 21 33 34 
3 35 23 22 
3 22 34 35 
3 24 12 23 
3 23 35 24 
3 37 25 24 
3 24 36 37 
3 38 26 25 
3 25 37 38 
3 39 27 26 
3 26 38 39 
3 40 28 27 
3 27 39 40 
3 41 29 28 
3 28 40 41 
3 42 30 29 
3 29 41 42 
3 43 31 30 
3 30 42 43 
3 44 32 31 
3 31 43 44 
3 45 33 32 
3 32 44 45 
3 46 34 33 
3 33 45 46 
3 47 35 34 
3 34 46 47 
3 36 24 35 
3 35 47 36 
3 49 37 36 
3 36 48 49 
3 50 38 37 
3 37 49 50 
3 51 39 38 
3 38 50 51 
3 52 40 39 
3 39 51 52 
3 53 41 40 
3 40 52 53 
3 54 42 41 
3 41 53 54 
3 55 43 42 
3 42 54 55 
3 56 44 43 
3 43 55 56 
3 57 45 44 
3 44 56 57 
3 58 46 45 
3 45 57 58 
3 59 47 46 
3 46 58 59 
3 48 36 47 
3 47 59 48 
3 61 49 48 
3 48 60 61 
3 62 50 49 
3 49 61 62 
3 63 51 50 
3 50 62 63 
3 64 52 51 
3 51 63 64 
3 65 53 52 
3 52 64 65 
3 66 54 53 
3 53 65 66 
3 67 55 54 
3 54 66 67 
3 68 56 55 
3 55 67 68 
3 69 57 56 
3 56 68 69 
3 70 58 57 
3 57 69 70 
3 71 59 58 
3 58 70 71 
3 60 48 59 
3 59 71 60 
3 73 61 60 
3 60 72 73 
3 74 62 61 
3 61 73 74 
3 75 63 62 
3 62 74 75 
3 76 64 63 
3 63 75 76 
3 77 65 64 
3 64 76 77 
3 78 66 65 
3 65 77 78 
3 79 67 66 
3 66 78 79 
3 80 68 67 
3 67 79 80 
3 81 69 68 
3 68 80 81 
3 82 70 69 
3 69 81 82 
3 83 71 70 
3 70 82 83 
3 72 60 71 
3 71 83 72 
3 85 73 72 
3 72 84 85 
3 86 74 73 
3 73 85 86 
3 87 75 74 
3 74 86 87 
3 88 76 75 
3 75 87 88 
3 89 77 76 
3 76 88 89 
3 90 78 77 
3 77 89 90 
3 91 79 78 
3 78 90 91 
3 92 80 79 
3 79 91 92 
3 93 81 80 
3 80 92 93 
3 94 82 81 
3 81 93 94 
3 95 83 82 
3 82 94 95 
3 84 72 83 
3 83 95 84 
3 97 85 84 
3 84 96 97 
3 98 86 85 
3 85 97 98 
3 99 87 86 
3 86 98 99 
3 100 88 87 
3 87 99 100 
3 101 89 88 
3 88 100 101 
3 102 90 89 
3 89 101 102 
3 103 91 90 
3 90 102 103 
3 104 92 91 
3 91 103 104 
3 105 93 92 
3 92 104 105 
3 106 94 93 
3 93 105 106 
3 107 95 94 
3 94 106 107 
3 96 84 95 
3 95 107 96 
3 109 97 96 
3 96 108 109 
3 110 98 97 
3 97 109 110 
3 111 99 98 
3 98 110 111 
3 112 100 99 
3 99 111 112 
3 113 101 100 
3 100 112 113 
3 114 102 101 
3 101 113 114 
3 115 103 102 
3 102 114 115 
3 116 104 103 
3 103 115 116 
3 117 105 104 
3 104 116 117 
3 118 106 105 
3 105 117 118 
3 119 107 106 
3 106 118 119 
3 108 96 107 
3 107 119 108 
3 121 109 108 
3 108 120 121 
3 122 110 109 
3 109 121 122 
3 123 111 110 
3 110 122 123 
3 124 112 111 
3 111 123 124 
3 125 113 112 
3 112 124 125 
3 126 114 113 
3 113 125 126 
3 127 115 114 
3 114 126 127 
3 128 116 115 
3 115 127 128 
3 129 117 116 
3 116 128 129 
3 130 118 117 
3 117 129 130 
3 131 119 118 
3 118 130 131 
3 120 108 119 
3 119 131 120 
3 133 121 120 
3 120 132 133 
3 134 122 121 
3 121 133 134 
3 135 123 122 
3 122 134 135 
3 136 124 123 
3 123 135 136 
3 137 125 124 
3 124 136 137 
3 138 126 125 
3 125 137 138 
3 139 127 126 
3 126 138 139 
3 140 128 127 
3 127 139 140 
3 141 129 128 
3 128 140 141 
3 142 130 129 
3 129 141 142 
3 143 131 130 
3 130 142 143 
3 132 120 131 
3 131 143 132 
3 145 133 132 
3 132 144 145 
3 146 134 133 
3 133 145 146 
3 147 135 134 
3 134 146 147 
3 148 136 135 
3 135 147 148 
3 149 137 136 
3 136 148 149 
3 150 138 137 
3 137 149 150 
3 151 139 138 
3 138 150 151 
3 152 140 139 
3 139 151 152 
3 153 141 140 
3 140 152 153 
3 154 142 141 
3 141 153 154 
3 155 143 142 
3 142 154 155 
3 144 132 143 
3 143 155 144 
3 157 145 144 
3 144 156 157 
3 158 146 145 
3 145 157 158 
3 159 147 146 
3 146 158 159 
3 160 148 147 
3 147 159 160 
3 161 149 148 
3 148 160 161 
3 162 150 149 
3 149 161 162 
3 163 151 150 
3 150 162 163 
3 164 152 151 
3 151 163 164 
3 165 153 152 
3 152 164 165 
3 166 154 153 
3 153 165 166 
3 167 155 154 
3 154 166 167 
3 156 144 155 
3 155 167 156 
3 169 157 156 
3 156 168 169 
3 170 158 157 
3 157 169 170 
3 171 159 158 
3 158 170 171 
3 172 160 159 
3 159 171 172 
3 173 161 160 
3 160 172 173 
3 174 162 161 
3 161 173 174 
3 175 163 162 
3 162 174 175 
3 176 164 163 
3 163 175 176 
3 177 165 164 
3 164 176 177 
3 178 166 165 
3 165 177 178 
3 179 167 166 
3 166 178 179 
3 168 156 167 
3 167 179 168 
3 181 169 168 
3 168 180 181 
3 182 170 169 
3 169 181 182 
3 183 171 170 
3 170 182 183 
3 184 172 171 
3 171 183 184 
3 185 173 172 
3 172 184 185 
3 186 174 173 
3 173 185 186 
3 187 175 174 
3 174 186 187 
3 188 176 175 
3 175 187 188 
3 189 177 176 
3 176 188 189 
3 190 178 177 
3 177 189 190 
3 191 179 178 
3 178 190 191 
3 180 168 179 
3 179 191 180 
3 193 181 180 
3 180 192 193 
3 194 182 181 
3 181 193 194 
3 195 183 182 
3 182 194 195 
3 196 184 183 
3 183 195 196 
3 197 185 184 
3 184 196 197 
3 198 186 185 
3 185 197 198 
3 199 187 186 
3 186 198 199 
3 200 188 187 
3 187 199 200 
3 201 189 188 
3 188 200 201 
3 202 190 189 
3 189 201 202 
3 203 191 190 
3 190 202 203 
3 192 180 191 
3 191 203 192 
3 205 193 192 
3 192 204 205 
3 206 194 193 
3 193 205 206 
3 207 195 194 
3 194 206 207 
3 208 196 195 
3 195 207 208 
3 209 197 196 
3 196 208 209 
3 210 198 197 
3 197 209 210 
3 211 199 198 
3 198 210 211 
3 212 200 199 
3 199 211 212 
3 213 201 200 
3 200 212 213 
3 214 202 201 
3 201 213 214 
3 215 203 202 
3 202 214 215 
3 204 192 203 
3 203 215 204 
3 217 205 204 
3 204 216 217 
3 218 206 205 
3 205 217 218 
3 219 207 206 
3 206 218 219 
3 220 208 207 
3 207 219 220 
3 221 209 208 
3 208 220 221 
3 222 210 209 
3 209 221 222 
3 223 211 210 
3 210 222 223 
3 224 212 211 
3 211 223 224 
3 225 213 212 
3 212 224 225 
3 226 214 213 
3 213 225 226 
3 227 215 214 
3 214 226 227 
3 216 204 215 
3 215 227 216 
3 229 217 216 
3 216 228 229 
3 230 218 217 
3 217 229 230 
3 231 219 218 
3 218 230 231 
3 232 220 219 
3 219 231 232 
3 233 221 220 
3 220 232 233 
3 234 222 221 
3 221 233 234 
3 235 223 222 
3 222 234 235 
3 236 224 223 
3 223 235 236 
3 237 225 224 
3 224 236 237 
3 238 226 225 
3 225 237 238 
3 239 227 226 
3 226 238 239 
3 228 216 227 
3 227 239 228 
3 241 229 228 
3 228 240 241 
3 242 230 229 
3 229 241 242 
3 243 231 230 
3 230 242 243 
3 244 232 231 
3 231 243 244 
3 245 233 232 
3 232 244 245 
3 246 234 233 
3 233 245 246 
3 247 235 234 
3 234 246 247 
3 248 236 235 
3 235 247 248 
3 249 237 236 
3 236 248 249 
3 250 238 237 
3 237 249 250 
3 251 239 238 
3 238 250 251 
3 240 228 239 
3 239 251 240 
3 253 241 240 
3 240 252 253 
3 254 242 241 
3 241 253 254 
3 255 243 242 
3 242 254 255 
3 256 244 243 
3 243 255 256 
3 257 245 244 
3 244 256 257 
3 258 246 245 
3 245 257 258 
3 259 247 246 
3 246 258 259 
3 260 248 247 
3 247 259 260 
3 261 249 248 
3 248 260 261 
3 262 250 249 
3 249 261 262 
3 263 251 250 
3 250 262 263 
3 252 240 251 
3 251 263 252 
3 265 253 252 
3 252 264 265 
3 266 254 253 
3 253 265 266 
3 267 255 254 
3 254 266 267 
3 268 256 255 
3 255 267 268 
3 269 257 256 
3 256 268 269 
3 270 258 257 
3 257 269 270 
3 271 259 258 
3 258 270 271 
3 272 260 259 
3 259 271 272 
3 273 261 260 
3 260 272 273 
3 274 262 261 
3 261 273 274 
3 275 263 262 
3 262 274 275 
3 264 252 263 
3 263 275 264 
3 277 265 264 
3 264 276 277 
3 278 266 265 
3 265 277 278 
3 279 267 266 
3 266 278 279 
3 280 268 267 
3 267 279 280 
3 281 269 268 
3 268 280 281 
3 282 270 269 
3 269 281 282 
3 283 271 270 
3 270 282 283 
3 284 272 271 
3 271 283 284 
3 285 273 272 
3 272 284 285 
3 286 274 273 
3 273 285 286 
3 287 275 274 
3 274 286 287 
3 276 264 275 
3 275 287 276 
3 1 277 276 
3 276 0 1 
3 2 278 277 
3 277 1 2 
3 3 279 278 
3 278 2 3 
3 4 280 279 
3 279 3 4 
3 5 281 280 
3 280 4 5 
3 6 282 281 
3 281 5 6 
3 7 283 282 
3 282 6 7 
3 8 284 283 
3 283 7 8 
3 9 285 284 
3 284 8 9 
3 10 286 285 
3 285 9 10 
3 11 287 286 
3 286 10 11 
3 0 276 287 
3 287 11 0 
